<svg xmlns="http://www.w3.org/2000/svg" viewBox="0 0 48 48" width="48px" height="48px">
  <path fill="#4285F4" d="M44.5,20H24v8.5h11.7C34.9,33.5,30.9,36,26,36c-5.5,0-10-4.5-10-10s4.5-10,10-10c2.4,0,4.6,0.9,6.3,2.4L39.7,9 C35.5,5.3,30.1,3,24,3C12.9,3,4,11.9,4,23s8.9,20,20,20c9.9,0,19-7.2,19-20C45,22.7,44.8,21.3,44.5,20z"/>
  <path fill="#34A853" d="M6.3,14.9l6.6,4.8C14.5,16.8,17.9,14,22,14c2.4,0,4.6,0.9,6.3,2.4L39.7,9C35.5,5.3,30.1,3,24,3 C17.4,3,11.5,6.2,7.8,11.1L6.3,14.9z"/>
  <path fill="#FBBC05" d="M24,43c5.9,0,11.3-2.3,15.3-6.1l-6.3-5.2c-1.8,1.4-4.1,2.3-6.6,2.3c-4.8,0-8.9-3.1-10.3-7.5l-6.5,5.1 C12.9,38.9,18.1,43,24,43z"/>
  <path fill="#EA4335" d="M44.5,20H24v8.5h11.7c-0.8,2.3-2.3,4.2-4.4,5.5l6.3,5.2c3.6-3.3,5.9-8.1,5.9-13.7 C45,22.7,44.8,21.3,44.5,20z"/>
</svg>
